# xmcd
#
# Track frame offsets: 
#        150
#        22560
#        54893
#        75753
#        100685
#        121040
#        144748
#        166140
#        190268
#        211068
#        234585
#        258533
#        278695
#        298788
#
# Disc length: 4411 seconds
#
# Revision: 4
# Processed by: cddbd v1.5.2PL0 Copyright (c) Steve Scherf et al.
# Submitted via: ExactAudioCopy v0.95b4
#
DISCID=ab11390e
DTITLE=Freddie Jackson - Greatest Hits
DYEAR=1993
DGENRE=R&B
TTITLE0=Do Me Again [Let Freddie Do You Edit]
TTITLE1=Rock Me Tonight
TTITLE2=I Don't Want To Lose Your Love
TTITLE3=I Could Use A Little Love (Right Now)
TTITLE4=Jam Tonite
TTITLE5=Nice and Slow
TTITLE6=You Are My Lady
TTITLE7=Love Me Down
TTITLE8=Have You Ever Loved Somebody [Edit]
TTITLE9=Hey Lover
TTITLE10=Love Is Just A Touch Away
TTITLE11=Tasty Love
TTITLE12=Christmas Forever
TTITLE13=Rock Me Tonight [Remix]
EXTD=
EXTT0=
EXTT1=
EXTT2=
EXTT3=
EXTT4=
EXTT5=
EXTT6=
EXTT7=
EXTT8=
EXTT9=
EXTT10=
EXTT11=
EXTT12=
EXTT13=
PLAYORDER=
